<svg version="1.1" id="Layer_1" xmlns="http://www.w3.org/2000/svg" xmlns:xlink="http://www.w3.org/1999/xlink" x="0px" y="0px"
   viewBox="0 0 100 125" style="enable-background:new 0 0 100 125;" xml:space="preserve">
<path style="fill:#C8F26D;" d="M91.989,97.856c2.231-4.865,3.541-10.152,3.905-15.854c0.553-8.649-1.121-16.859-5.411-24.352
  C81.824,42.527,68.529,34.954,50.826,34.18c-2.885-0.085-4.573,0.266-6.692,0.668c6.87-7.741,16.012-17.988,20.029-22.4
  c2.1-1.763,4.575-3.497,5.883-3.913c2.214-0.704,4.783-0.872,7.56-0.978c0.883-0.034,1.611-0.699,1.728-1.575
  c0.05-0.378,0.096-0.77,0.135-1.142c0.11-1.039-0.705-1.942-1.75-1.936c-4.84,0.025-17.454,0.089-21.93,0.101
  c-0.947,0.003-1.713,0.756-1.749,1.703c-0.017,0.458-0.015,0.92-0.003,1.343c0.024,0.825,0.559,1.575,1.353,1.801
  c0.451,0.128,0.969,0.616,1.248,1.331c-0.465,0.513-0.931,1.025-1.397,1.538c-10.51,11.59-21.02,23.179-31.523,34.774
  c-0.303,0.335-0.932-0.053-0.932-0.489c0-10.42-0.064-20.841-0.09-31.261l0.042-0.014c0-5.421,1.755-6.891,3.011-7.249
  c0.794-0.226,1.329-0.976,1.353-1.801c0.012-0.423,0.015-0.885-0.003-1.343c-0.036-0.947-0.801-1.7-1.749-1.703
  C20.875,1.623,8.261,1.559,3.42,1.534C2.376,1.529,1.561,2.431,1.67,3.47C1.71,3.843,1.755,4.235,1.805,4.613
  c0.117,0.876,0.845,1.541,1.728,1.575c2.777,0.106,5.332,0.273,7.546,0.978C13.082,7.802,15,9.453,15,11.427
  c0,19.836,0,24.484,0,46.123c0,1.974-1.918,3.625-3.921,4.262c-2.213,0.704-4.776,0.872-7.553,0.978
  c-0.883,0.034-1.608,0.699-1.725,1.575c-0.05,0.378-0.094,0.77-0.133,1.142c-0.11,1.039,0.706,1.942,1.751,1.936
  c4.84-0.025,17.455-0.089,21.93-0.101c0.947-0.003,1.713-0.756,1.749-1.703c0.017-0.458,0.015-0.92,0.003-1.343
  c-0.024-0.825-0.559-1.575-1.353-1.801c-0.738-0.21-2.27-0.872-2.27-2.364c0-1.571,5.363-7.983,9.905-13.131
  c8.521,9.887,41.187,45.665,48.246,53.526c-3.026,4.331-7.018,7.955-11.935,10.853c-6.099,3.595-12.737,5.061-19.821,4.949
  c-16.247-0.257-23.359-8.788-25.082-11.006c-3.942-5.072-3.298-11.672-1.595-14.928c1.608-3.073,5.078-5.988,8.001-6.078
  c2.923-0.09,5.267,1.031,6.38,2.566c1.113,1.535-0.909,1.351-0.909,1.351s-2.728,0.2-3.146,2.691
  c-0.281,1.677-0.327,4.06,1.085,5.09c1.412,1.03,4.166,1.784,6.328,1.056c2.161-0.729,4.328-2.127,4.29-6.394
  c-0.038-4.267-2.856-9.487-8.064-11.365c-5.208-1.878-11.81-0.054-16.039,4.206c-4.229,4.26-6.002,10.39-5.073,17.512
  c1.148,8.806,8.005,14,10.445,15.596c9.456,6.186,19.852,8.445,31.042,6.874c9.923-1.392,18.465-5.693,25.479-12.799
  c1.724-1.747,3.279-3.575,4.663-5.482c4.846,2.871,10.73,0.543,12.321-3.202C98.391,102.866,94.172,101.178,91.989,97.856z
   M45.07,48.803c-1.484-1.759-2.967-3.525-4.45-5.289c5.779-1.741,11.874-1.954,18.24-0.636c9.537,1.975,17.183,7.061,22.731,15.07
  c6.286,9.074,8.176,19.12,5.649,29.845c-0.449,1.904-1.019,3.722-1.706,5.459C75.242,81.629,52.245,57.309,45.07,48.803z"/>
</svg>
