<svg version="1.1" id="Layer_1" xmlns="http://www.w3.org/2000/svg" xmlns:xlink="http://www.w3.org/1999/xlink" x="0px" y="0px"
   viewBox="0 0 100 125" style="enable-background:new 0 0 100 125;" xml:space="preserve">
<path style="display:none;fill:#C8F26D;" d="M91.989,97.856c2.231-4.865,3.541-10.152,3.905-15.854
  c0.553-8.649-1.121-16.859-5.411-24.352C81.824,42.527,68.529,34.954,50.826,34.18c-2.885-0.085-4.573,0.266-6.692,0.668
  c6.87-7.741,16.012-17.988,20.029-22.4c2.1-1.763,4.575-3.497,5.883-3.913c2.214-0.704,4.783-0.872,7.56-0.978
  c0.883-0.034,1.611-0.699,1.728-1.575c0.05-0.378,0.096-0.77,0.135-1.142c0.11-1.039-0.705-1.942-1.75-1.936
  c-4.84,0.025-17.454,0.089-21.93,0.101c-0.947,0.003-1.713,0.756-1.749,1.703c-0.017,0.458-0.015,0.92-0.003,1.343
  c0.024,0.825,0.559,1.575,1.353,1.801c0.451,0.128,0.969,0.616,1.248,1.331c-0.465,0.513-0.931,1.025-1.397,1.538
  c-10.51,11.59-21.02,23.179-31.523,34.774c-0.303,0.335-0.932-0.053-0.932-0.489c0-10.42-0.064-20.841-0.09-31.261l0.042-0.014
  c0-5.421,1.755-6.891,3.011-7.249c0.794-0.226,1.329-0.976,1.353-1.801c0.012-0.423,0.015-0.885-0.003-1.343
  c-0.036-0.947-0.801-1.7-1.749-1.703C20.875,1.623,8.261,1.559,3.42,1.534C2.376,1.529,1.561,2.431,1.67,3.47
  C1.71,3.843,1.755,4.235,1.805,4.613c0.117,0.876,0.845,1.541,1.728,1.575c2.777,0.106,5.332,0.273,7.546,0.978
  C13.082,7.802,15,9.453,15,11.427c0,19.836,0,24.484,0,46.123c0,1.974-1.918,3.625-3.921,4.262
  c-2.213,0.704-4.776,0.872-7.553,0.978c-0.883,0.034-1.608,0.699-1.725,1.575c-0.05,0.378-0.094,0.77-0.133,1.142
  c-0.11,1.039,0.706,1.942,1.751,1.936c4.84-0.025,17.455-0.089,21.93-0.101c0.947-0.003,1.713-0.756,1.749-1.703
  c0.017-0.458,0.015-0.92,0.003-1.343c-0.024-0.825-0.559-1.575-1.353-1.801c-0.738-0.21-2.27-0.872-2.27-2.364
  c0-1.571,5.363-7.983,9.905-13.131c8.521,9.887,41.187,45.665,48.246,53.526c-3.026,4.331-7.018,7.955-11.935,10.853
  c-6.099,3.595-12.737,5.061-19.821,4.949c-16.247-0.257-23.359-8.788-25.082-11.006c-3.942-5.072-3.298-11.672-1.595-14.928
  c1.608-3.073,5.078-5.988,8.001-6.078c2.923-0.09,5.267,1.031,6.38,2.566c1.113,1.535-0.909,1.351-0.909,1.351
  s-2.728,0.2-3.146,2.691c-0.281,1.677-0.327,4.06,1.085,5.09c1.412,1.03,4.166,1.784,6.328,1.056
  c2.161-0.729,4.328-2.127,4.29-6.394c-0.038-4.267-2.856-9.487-8.064-11.365c-5.208-1.878-11.81-0.054-16.039,4.206
  c-4.229,4.26-6.002,10.39-5.073,17.512c1.148,8.806,8.005,14,10.445,15.596c9.456,6.186,19.852,8.445,31.042,6.874
  c9.923-1.392,18.465-5.693,25.479-12.799c1.724-1.747,3.279-3.575,4.663-5.482c4.846,2.871,10.73,0.543,12.321-3.202
  C98.391,102.866,94.172,101.178,91.989,97.856z M45.07,48.803c-1.484-1.759-2.967-3.525-4.45-5.289
  c5.779-1.741,11.874-1.954,18.24-0.636c9.537,1.975,17.183,7.061,22.731,15.07c6.286,9.074,8.176,19.12,5.649,29.845
  c-0.449,1.904-1.019,3.722-1.706,5.459C75.242,81.629,52.245,57.309,45.07,48.803z"/>
<g>
  <path style="fill:#C8F26D;" d="M54.767,53.916c-2.87-0.594-5.617-0.498-8.223,0.287c0.668,0.795,1.337,1.591,2.006,2.384
    c3.235,3.834,13.602,14.798,18.242,20.038c0.309-0.783,0.567-1.603,0.769-2.461c1.139-4.835,0.287-9.364-2.547-13.455
    C62.513,57.099,59.066,54.806,54.767,53.916z"/>
  <path style="fill:#C8F26D;" d="M84.79,28.454c-9.368-8.631-21.714-12.953-37.009-12.953c-11.84,0-22.581,5.176-32.195,15.541
    C5.957,41.408,1.143,52.51,1.143,64.35c0,10.857,5.436,21.092,16.293,30.721c10.857,9.628,21.714,14.428,32.557,14.428
    c13.329,0,24.808-4.554,34.422-13.691c9.628-9.122,14.442-19.849,14.442-32.195C98.857,48.809,94.173,37.099,84.79,28.454z
     M67.758,82.019c-0.624,0.86-1.325,1.684-2.102,2.472c-3.162,3.203-7.013,5.142-11.486,5.77c-5.045,0.708-9.732-0.311-13.994-3.099
    c-1.1-0.72-4.191-3.061-4.709-7.031c-0.419-3.211,0.38-5.974,2.287-7.894c1.906-1.921,4.883-2.743,7.23-1.896
    c2.348,0.846,3.618,3.2,3.635,5.123c0.017,1.924-0.959,2.554-1.934,2.883c-0.974,0.328-2.216-0.012-2.853-0.476
    c-0.637-0.464-0.616-1.538-0.489-2.295c0.188-1.123,1.418-1.213,1.418-1.213s0.912,0.083,0.41-0.609
    c-0.502-0.692-1.558-1.198-2.876-1.157c-1.318,0.041-2.882,1.355-3.607,2.74c-0.768,1.468-1.058,4.443,0.719,6.73
    c0.777,1,3.983,4.846,11.307,4.962c3.194,0.051,6.186-0.61,8.935-2.231c2.217-1.307,4.016-2.94,5.38-4.893
    c-3.182-3.544-17.909-19.673-21.75-24.13c-2.048,2.321-4.466,5.211-4.466,5.92c0,0.673,0.69,0.971,1.023,1.066
    c0.358,0.102,0.598,0.44,0.609,0.812c0.005,0.191,0.004,0.399-0.004,0.605c-0.016,0.427-0.366,0.767-0.793,0.768
    c-2.018,0.005-7.714,0.034-9.896,0.045c-0.471,0.002-0.858-0.404-0.809-0.873c0.018-0.168-0.002-0.345,0.021-0.515
    c0.053-0.395,0.301-0.695,0.699-0.71c1.252-0.048,2.251-0.123,3.248-0.441c0.903-0.287,1.455-1.031,1.455-1.921
    c0-9.755,0-11.851,0-20.793c0-0.89-0.552-1.634-1.455-1.921c-0.998-0.318-1.837-0.393-3.089-0.441
    c-0.398-0.015-0.726-0.315-0.779-0.71c-0.023-0.17-0.043-0.347-0.061-0.515c-0.049-0.468,0.318-0.875,0.789-0.873
    c2.182,0.011,7.869,0.04,9.886,0.045c0.427,0.001,0.772,0.341,0.788,0.768c0.008,0.206,0.007,0.415,0.001,0.605
    c-0.011,0.372-0.252,0.71-0.61,0.812c-0.566,0.161-1.357,0.824-1.357,3.268l-0.019,0.006c0.012,4.698,0.041,9.395,0.041,14.093
    c0,0.197,0.283,0.371,0.42,0.22c4.735-5.227,9.473-10.452,14.211-15.677c0.21-0.231,0.42-0.462,0.63-0.694
    c-0.125-0.323-0.359-0.542-0.562-0.6c-0.358-0.102-0.599-0.44-0.61-0.812c-0.005-0.191-0.007-0.399,0.001-0.605
    c0.016-0.427,0.361-0.767,0.788-0.768c2.018-0.005,7.704-0.034,9.886-0.045c0.471-0.002,0.838,0.404,0.789,0.873
    c-0.018,0.168-0.038,0.345-0.061,0.515c-0.053,0.395-0.381,0.695-0.779,0.71c-1.252,0.048-2.41,0.123-3.408,0.441
    c-0.59,0.188-1.706,0.969-2.652,1.764c-1.811,1.989-5.932,6.608-9.029,10.098c0.955-0.181,1.716-0.339,3.017-0.301
    c7.981,0.349,13.974,3.763,17.878,10.581c1.934,3.378,2.689,7.079,2.439,10.978c-0.164,2.57-0.755,4.954-1.761,7.147
    c0.984,1.498,2.886,2.259,3.611,1.875C72.596,82.264,69.943,83.313,67.758,82.019z"/>
</g>
</svg>
