<svg version="1.1" id="Layer_1" xmlns="http://www.w3.org/2000/svg" xmlns:xlink="http://www.w3.org/1999/xlink" x="0px" y="0px"
   viewBox="0 0 700 137.472" style="enable-background:new 0 0 700 137.472;" xml:space="preserve">
<g id="krizcortes_4_">
  <g>
    <g>
      <path style="fill:#C8F26D;" d="M346.694,88.325c-0.185,0.683-0.34,1.376-0.56,2.047c-0.867,2.653-3.09,4.249-5.895,4.411
        c-2.357,0.137-4.53-0.465-6.504-1.628c-4.899-2.887-9.739-5.875-14.597-8.831c-1.292-0.786-2.554-1.621-3.848-2.403
        c-2.011-1.216-3.291-0.729-3.672,1.561c-0.449,2.703-0.973,5.439-0.978,8.161c-0.011,5.973,0.255,11.947,0.482,17.919
        c0.039,1.038-0.29,1.656-1.241,1.808c-0.945,0.152-1.191-0.579-1.291-1.348c-0.541-4.142-1.145-8.277-1.605-12.428
        c-0.627-5.656-0.967-11.349-2.399-16.89c-0.057-0.221-0.138-0.437-0.208-0.655c-5.778,2.099-11.784,2.522-17.756,2.987
        c-27.801,2.165-55.667,2.269-83.527,2.498c-13.514,0.111-27.028,0.24-40.542,0.206c-11.437-0.029-22.874-0.267-34.31-0.443
        c-6.576-0.101-13.151-0.29-19.728-0.392c-9.963-0.155-19.93-0.482-29.89-0.342c-10.116,0.142-20.238,0.579-30.335,1.226
        c-9.598,0.615-18.895,2.767-27.521,7.192c-2.929,1.503-5.695,3.335-8.477,5.109c-2.7,1.722-3.933,4.346-4.415,7.453
        c-0.21,1.353-0.638,2.725-1.261,3.938c-0.336,0.654-1.299,1.37-1.964,1.356c-0.58-0.012-1.149-1-1.7-1.579
        c-0.15-0.158-0.217-0.394-0.322-0.595c0-0.479,0-0.957,0-1.436c2.19-5.729,6.674-9.394,11.516-12.706
        c8.015-5.483,17.148-8.043,26.497-10.023c6.978-1.478,14.053-1.815,21.156-1.861c11.922-0.077,23.847-0.372,35.765-0.196
        c12.555,0.186,25.102,0.95,37.657,1.215c12.715,0.269,25.437,0.349,38.156,0.309c19.419-0.061,38.838-0.19,58.254-0.495
        c12.834-0.202,25.67-0.6,38.491-1.219c8.589-0.414,17.158-1.3,25.722-2.128c2.27-0.22,4.494-0.977,6.724-1.547
        c1.211-0.31,1.532-1.119,1.315-2.37c-1.179-6.78-2.324-13.567-3.417-20.362c-1.237-7.696-1.018-15.369,0.069-23.091
        c0.835-5.932,1.909-11.769,3.766-17.466c1.171-3.594,2.826-6.923,5.103-9.93c2.999-3.961,7.084-3.992,10.204-0.125
        c2.259,2.8,3.302,6.117,3.577,9.594c0.269,3.403,0.265,6.851,0.079,10.263c-0.549,10.052-2.115,19.956-5.113,29.58
        c-2.53,8.121-5.787,15.929-11.04,22.739c-0.667,0.865-0.833,1.683-0.619,2.735c0.546,2.688,0.995,5.395,1.544,8.432
        c0.222-0.498,0.344-0.699,0.403-0.916c0.324-1.19,0.577-2.403,0.961-3.572c0.412-1.255,0.642-2.368-0.397-3.512
        c-0.642-0.706-0.295-1.54,0.856-1.82c1.384-0.337,2.006-1.294,2.638-2.368c0.686-1.166,1.436-2.296,2.128-3.458
        c3.763-6.319,9.577-9.827,16.396-11.935c1.902-0.588,3.837-0.655,5.755,0.016c3.335,1.166,4.291,4.411,2.039,7.13
        c-0.86,1.039-1.808,2.037-2.851,2.887c-5.291,4.314-11.15,7.483-17.963,8.659c-0.343,0.059-0.676,0.173-1.226,0.318
        c0.611,0.495,1.036,0.909,1.525,1.224c5.186,3.342,10.376,6.678,15.58,9.993c1.983,1.263,4.215,1.423,6.461,1.151
        c1.802-0.218,3.389-2.103,3.44-4.057c0.037-1.424-0.155-2.853-0.255-4.28c-0.065-0.928-0.026-1.883,1.109-2.044
        c1.096-0.155,1.496,0.71,1.713,1.614c0.146,0.609,0.233,1.231,0.346,1.848C346.694,86.411,346.694,87.368,346.694,88.325z
         M305.478,75.785c0.136,0.029,0.273,0.058,0.409,0.087c1.084-1.51,2.275-2.955,3.234-4.54c3.752-6.206,6.177-12.985,8.117-19.92
        c1.036-3.703,1.58-7.544,2.334-11.325c1.65-8.278,2.376-16.623,1.758-25.059c-0.283-3.858-1.704-7.17-4.773-9.657
        c-1.146-0.929-2.461-1.102-3.652-0.297c-0.961,0.649-1.877,1.511-2.507,2.479c-2.04,3.136-3.713,6.464-4.928,10.026
        c-1.756,5.147-3.007,10.413-3.369,15.826c-0.372,5.557-0.615,11.14-0.534,16.706c0.088,6.057,1.229,12.023,2.42,17.959
        C304.502,70.638,304.982,73.213,305.478,75.785z M313.633,78.093c0.7-0.049,0.977-0.044,1.245-0.091
        c7.321-1.279,14.153-3.686,19.913-8.592c1.185-1.009,2.082-2.189,2.489-3.704c0.487-1.814-0.266-2.957-2.16-2.936
        c-1.574,0.018-3.228,0.109-4.702,0.601c-6.175,2.063-11.283,5.672-14.988,11.093C314.729,75.491,314.307,76.709,313.633,78.093z"
        />
    </g>
    <g>
      <path style="fill:#C8F26D;" d="M423.884,134.633c-0.792-0.27-1.599-0.505-2.375-0.817c-4.548-1.828-6.407-4.565-5.327-10.406
        c0.389-2.101,1.708-4.188,3.061-5.924c5.882-7.54,12.901-13.973,20.224-20.077c1.48-1.233,3.116-2.278,4.669-3.423
        c0.638-0.47,1.247-0.979,1.974-1.553c-1.578-1.902-3.5-2.675-5.79-2.39c-6.425,0.8-12.427,2.916-18.098,6.005
        c-1.446,0.788-2.849,1.666-4.343,2.345c-0.554,0.252-1.312,0.052-1.978,0.059c0.038-0.615-0.092-1.304,0.141-1.834
        c1.685-3.83,3.496-7.605,5.156-11.445c0.773-1.79,1.299-3.686,2.048-5.856c-1.626,0.266-2.902,0.561-4.194,0.67
        c-3.277,0.276-6.563,0.448-9.842,0.71c-0.814,0.065-1.554-0.054-2.313,0.827c-4.6,5.334-8.525,11.332-14.393,15.45
        c-1.403,0.984-3.196,1.759-4.881,1.928c-4.576,0.458-7.453-1.985-8.409-6.872c-0.396-2.025-0.566-4.106-0.692-6.171
        c-0.217-3.572-0.338-7.15-0.455-10.727c-0.023-0.695,0.076-1.419,0.269-2.086c0.09-0.311,0.541-0.517,0.828-0.771
        c0.257,0.301,0.558,0.577,0.753,0.914c0.102,0.177,0.009,0.462,0.022,0.697c0.312,5.549,0.617,11.098,0.951,16.645
        c0.042,0.699,0.153,1.418,0.376,2.079c1.714,5.076,5.722,5.673,10.275,2.607c3.981-2.681,6.997-6.422,10.06-10.073
        c1.12-1.336,2.279-2.64,3.414-3.962c0.211-0.246,0.554-0.505,0.567-0.772c0.088-1.781,1.259-2.045,2.641-1.882
        c5.336,0.631,10.51-0.128,15.603-1.699c1.364-0.421,2.114,0.299,1.592,1.766c-1.541,4.331-3.197,8.622-4.864,12.907
        c-0.49,1.26-1.169,2.447-1.579,3.952c1.018-0.496,2.03-1.007,3.056-1.487c5.121-2.398,10.37-4.438,15.944-5.522
        c3.719-0.724,7.136-0.271,9.787,2.757c5.733-3.67,11.433-7.33,17.149-10.965c0.629-0.4,1.327-0.721,2.034-0.953
        c0.272-0.09,0.66,0.171,0.995,0.272c-0.112,0.332-0.139,0.74-0.355,0.978c-0.308,0.34-0.745,0.568-1.141,0.821
        c-5.077,3.244-10.159,6.481-15.235,9.727c-0.515,0.329-0.975,0.749-1.508,1.042c-0.791,0.435-0.775,0.936-0.473,1.726
        c2.524,6.6,2.431,13.289,0.302,19.936c-1.188,3.708-2.421,7.459-4.852,10.603c-4.105,5.309-9.518,8.568-16.061,9.985
        c-0.264,0.057-0.516,0.175-0.773,0.265C426.524,134.633,425.204,134.633,423.884,134.633z M447.083,93.844
        c-0.695,0.463-1.368,0.875-2.004,1.34c-6.859,5.018-13.108,10.727-19.019,16.819c-2.928,3.017-5.627,6.21-7.499,10.013
        c-1.344,2.73-1.45,5.333,0.587,7.898c2.159,2.717,5.166,3.201,8.148,2.852c6.762-0.793,12.474-3.944,16.19-9.674
        c4.312-6.65,6.355-14.117,5.801-22.123C449.116,98.506,448.737,96.022,447.083,93.844z"/>
      <path style="fill:#C8F26D;" d="M354.687,78.793c2.996-1.804,5.567-3.363,8.149-4.904c1.05-0.627,2.104-1.251,3.188-1.813
        c1.435-0.744,1.831-0.485,1.841,1.153c0.021,3.441,0.076,6.883,0.029,10.323c-0.07,5.156,0.519,10.235,1.474,15.293
        c0.28,1.485,0.244,3.029,0.353,4.551c-1.498,0.244-1.952-0.005-2.036-1.433c-0.33-5.59-0.929-11.164-1.329-16.751
        c-0.222-3.099-0.246-6.213-0.367-9.319c-0.025-0.65-0.086-1.299-0.149-2.219c-0.64,0.344-1.125,0.567-1.571,0.851
        c-3.49,2.221-6.968,4.461-10.466,6.67c-0.287,0.181-0.715,0.281-1.045,0.225c-0.78-0.134-1.53-0.5-2.31-0.57
        c-6.698-0.6-7.612-6.134-5.886-10.053c1.661-3.774,4.984-5.713,8.367-4.963c2.09,0.464,3.324,1.625,3.296,3.797
        c-0.027,2.085-0.53,4.168-0.866,6.245C355.22,76.741,354.969,77.589,354.687,78.793z M353.063,79.36
        c0.537-2.137,1.056-3.942,1.428-5.777c0.231-1.143,0.306-2.33,0.332-3.5c0.04-1.78-0.994-2.791-2.756-2.826
        c-2.579-0.052-5.454,1.883-6.405,4.31c-1.221,3.117,0.041,6.156,3.162,7.181C350.121,79.173,351.563,79.158,353.063,79.36z"/>
      <path style="fill:#C8F26D;" d="M379.871,63.318c0.563,0.974,1.022,1.548,1.199,2.199c0.057,0.211-0.625,0.888-0.971,0.89
        c-0.86,0.003-1.77-0.372-1.706-1.399C378.422,64.551,379.123,64.137,379.871,63.318z"/>
    </g>
  </g>
  <g>
    <g>
      <path style="fill:#C8F26D;" d="M566.537,47.932c2.737-0.452,5.317-1.01,7.928-1.281c5.74-0.598,11.486-1.289,17.245-1.512
        c11.636-0.45,23.046-2.317,34.406-4.719c5.903-1.248,11.808-2.393,17.356-4.9c1.554-0.702,2.492-1.642,2.518-3.394
        c0.017-1.129,0.332-2.342,1.658-2.209c1.329,0.134,1.744,1.284,1.7,2.628c-0.048,1.455-0.621,2.438-1.833,3.277
        c-4.075,2.821-8.819,3.76-13.472,4.954c-12.909,3.315-26.085,4.968-39.323,6.193c-7.375,0.682-14.764,1.222-22.14,1.896
        c-1.625,0.149-3.216,0.64-4.837,0.883c-0.932,0.14-1.212,0.593-1.219,1.486c-0.083,11.392-0.701,22.809-0.143,34.169
        c0.516,10.5,4.212,20.06,12.341,27.37c3.239,2.912,9.195,4.496,13.861,0.863c3.97-3.09,7.333-6.753,10.104-10.92
        c3.37-5.067,6.637-10.205,9.812-15.396c1.119-1.829,1.869-3.891,2.728-5.872c1.765-4.075,3.901-7.806,8.532-9.18
        c0.839-0.249,1.78-0.296,2.66-0.235c1.894,0.131,3.004,1.44,2.757,3.337c-0.593,4.562-5.569,11.869-11.341,12.606
        c-1.288,0.165-1.699,0.737-1.608,1.981c0.252,3.477,0.753,6.938,2.973,9.723c4.133,5.185,9.208,6.148,15.887,2.539
        c4.843-2.617,8.61-6.659,11.586-11.336c0.907-1.426,1.742-2.91,2.474-4.432c0.516-1.074,0.72-2.296,1.213-3.383
        c0.644-1.42,1.165-3.038,2.212-4.108c4.575-4.673,12.146-5.977,18.104-3.259c1.038,0.474,2.089,1.139,2.825,1.985
        c0.55,0.633,0.678,1.686,0.83,2.58c0.048,0.283-0.376,0.832-0.69,0.933c-0.269,0.087-0.816-0.198-1.022-0.479
        c-4.903-6.704-14.9-4.106-18.987,0.614c-1.651,1.907-1.57,3.558,0.605,4.882c2.473,1.505,5.161,2.655,7.754,3.964
        c1.085,0.548,2.288,0.953,3.215,1.699c1.132,0.911,1.919,0.529,3.075,0.03c6.157-2.659,12.373-5.185,18.584-7.719
        c3.033-1.237,6.089-2.423,9.162-3.557c0.551-0.203,1.237-0.04,1.861-0.046c-0.387,0.598-0.639,1.511-1.183,1.744
        c-3.838,1.64-7.738,3.134-11.613,4.687c-4.464,1.79-8.932,3.572-13.378,5.405c-1.062,0.438-2.047,1.062-3.115,1.625
        c3.732,3.463,3.346,9.072-0.707,12.784c-2.352,2.154-5.072,2.957-8.201,2.458c-3.169-0.505-5.432-4.355-3.888-7.13
        c0.993-1.786,2.542-3.333,4.08-4.724c1.477-1.335,3.261-2.329,5.065-3.579c-2.078-1.753-4.536-2.395-6.813-3.412
        c-2.287-1.022-4.485-2.242-6.865-3.448c-0.769,1.397-1.719,3.143-2.687,4.879c-3.028,5.434-7.504,9.402-12.802,12.498
        c-3.27,1.911-6.872,2.518-10.579,2.004c-3.773-0.523-6.115-3.182-8.098-6.137c-2.227-3.319-2.811-7.13-2.975-11.459
        c-1.034,1.55-1.883,2.775-2.683,4.03c-2.504,3.928-4.923,7.911-7.5,11.789c-2.602,3.916-6.001,7.101-9.589,10.117
        c-5.318,4.468-10.269,4.171-15.615,0.694c-5.981-3.89-9.645-9.677-11.888-16.398c-2.68-8.029-3.699-16.29-3.511-24.722
        c0.167-7.471,0.352-14.941,0.527-22.412c0.008-0.36,0.001-0.721,0.001-1.58c-2.682,0.809-5.161,1.444-7.56,2.304
        c-4.73,1.696-9.089,4.035-12.544,7.809c-0.315,0.344-0.721,0.757-1.135,0.822c-0.607,0.096-1.394,0.092-1.841-0.233
        c-0.256-0.186-0.225-1.357,0.08-1.626c1.652-1.451,3.315-2.948,5.186-4.079c5.06-3.058,10.573-5.064,16.327-6.366
        c1.502-0.34,1.788-1.098,1.895-2.521c0.564-7.494,1.268-14.977,1.948-22.461c0.046-0.511,0.158-1.129,0.479-1.472
        c0.339-0.361,0.966-0.453,1.466-0.662c0.125,0.452,0.392,0.915,0.354,1.353c-0.642,7.436-1.328,14.868-1.984,22.302
        C566.478,46.251,566.537,47.042,566.537,47.932z M669.335,99.842c0.135-0.075,0.27-0.151,0.406-0.226
        c-0.692-1.243-1.34-2.514-2.112-3.706c-0.163-0.252-0.872-0.413-1.171-0.274c-3.166,1.468-5.948,3.464-8.021,6.314
        c-1.387,1.907-0.748,4.006,1.417,4.941C663.849,108.615,669.263,104.589,669.335,99.842z M616.345,85.651
        c0.404,0,0.617,0.036,0.815-0.005c5.231-1.085,8.08-4.668,9.737-9.423c0.475-1.363-0.239-2.145-1.847-2.159
        c-1.739-0.014-3.166,0.776-4.321,2.021c-2.126,2.294-3.44,5.038-4.255,8.03C616.347,84.584,616.387,85.099,616.345,85.651z"/>
      <path style="fill:#C8F26D;" d="M553.398,107.188c-1.06-0.183-1.658-0.287-2.313-0.4c-0.779-11.085-1.549-22.038-2.336-33.227
        c-1.793,1.105-3.608,2.132-5.325,3.304c-2.958,2.017-5.91,4.052-8.766,6.209c-5.56,4.2-11.378,7.767-18.57,8.251
        c-0.868,0.058-1.169,0.433-1.527,1.23c-0.878,1.955-1.791,3.973-3.122,5.616c-0.812,1.002-2.358,1.622-3.689,1.95
        c-4.861,1.2-8.019-1.863-7.197-6.819c0.12-0.722,0.268-1.44,0.416-2.231c-2.151,1.829-4.211,3.626-6.32,5.364
        c-4.247,3.498-9.27,5.037-14.64,5.473c-5.491,0.446-12.276-3.645-14.517-8.371c-2.509-5.291,0.278-15.133,6.517-17.501
        c2.618-0.994,5.731,0.45,6.413,3.186c0.077,0.309,0.007,0.847-0.195,0.986c-0.293,0.201-0.797,0.242-1.16,0.15
        c-0.325-0.083-0.582-0.436-0.867-0.673c-2.091-1.741-3.32-1.748-5.167,0.271c-2.554,2.79-3.99,6.182-4.08,9.927
        c-0.092,3.812,2.371,6.286,5.481,7.936c4.878,2.588,10.012,2.574,15.046,0.484c4.917-2.041,9.053-5.245,12.51-9.305
        c0.164-0.193,0.283-0.424,0.473-0.715c-0.256-0.195-0.456-0.346-0.654-0.499c-2.6-2.014-2.717-5.252-0.128-7.302
        c2.941-2.33,6.307-2.706,9.738-1.349c3.7,1.463,5.581,4.383,5.894,8.325c0.041,0.523,0.006,1.052,0.006,1.802
        c7.004-0.15,12.477-3.657,18.179-7.503c-1.303-0.176-2.318-0.252-3.307-0.457c-3.89-0.805-5.907-3.297-5.943-7.275
        c-0.045-4.952,3.524-8.988,8.428-9.529c3.001-0.331,5.498,1.521,5.507,4.549c0.007,2.339-0.621,4.682-1.008,7.017
        c-0.152,0.917-0.416,1.816-0.73,3.157c2.249-1.33,4.1-2.428,5.954-3.521c2.279-1.344,4.535-2.728,6.848-4.009
        c1.487-0.824,2.01-0.477,2.021,1.205c0.027,3.87,0.086,7.741,0.033,11.61c-0.081,5.852,0.573,11.619,1.674,17.358
        C553.285,103.488,553.249,105.182,553.398,107.188z M534.908,79.87c0.596-3.615,1.273-6.967,1.662-10.353
        c0.237-2.057-1.095-3.22-3.172-3.235c-2.834-0.02-5.988,2.119-7.077,4.798c-1.515,3.729,0.18,7.293,4.073,8.303
        C531.696,79.721,533.092,79.687,534.908,79.87z M512.706,92.14c-3.254-0.672-6.36-1.314-9.833-2.032
        c-0.198,1.392-0.499,3.071-0.659,4.763c-0.142,1.505,0.661,2.445,2.036,3.037C508.139,99.581,512.231,96.708,512.706,92.14z
         M512.976,89.452c0.177-4.048-1.355-6.72-3.917-7.304c-0.445,0.523-0.748,1.231-1.223,1.377
        c-2.156,0.659-2.678,2.583-3.711,4.171C506.924,89.518,509.814,89.907,512.976,89.452z M505.603,80.881
        c-2.845-0.443-5.161,0.666-5.592,2.479c-0.379,1.596,0.716,2.296,1.985,3.054C503.207,84.557,504.337,82.824,505.603,80.881z"/>
    </g>
    <path style="fill:#C8F26D;" d="M632.703,65.919c-0.911-0.132-1.244-0.645-0.715-1.325c0.711-0.913,1.495-1.801,2.382-2.537
      c1.813-1.503,3.707-2.911,5.589-4.33c0.546-0.411,1.197-0.98,1.871-0.375c0.844,0.758,0.925,2.22,0.228,2.946
      c-0.343,0.357-0.8,0.676-1.265,0.833c-2.598,0.873-4.688,2.552-6.828,4.167C633.597,65.575,633.126,65.715,632.703,65.919z"/>
  </g>
</g>
</svg>
