<svg 
  version="1.1" 
  id="space" 
  xmlns="http://www.w3.org/2000/svg" 
  xmlns:xlink="http://www.w3.org/1999/xlink" 
  x="0px" 
  y="0px" 
  viewBox="0 0 612 792" 
  style="enable-background:new 0 0 612 792;" 
  xml:space="preserve">

<g id="stars">
  <path 
    style="fill:#F1F1F1;" 
    d="M223.317,325.372c-0.555,0.232-0.984,0.589-1.623,0.27c-0.671-0.336-1.363-0.63-1.723-1.308
    c-0.463-0.87,0.231-2.692,1.122-3.109c0.945-0.443,3.347,0.277,3.577,1.175c0.159,0.621-0.004,1.306-0.19,1.97
    C224.287,325.058,223.724,325.126,223.317,325.372z"/>
  <path style="fill:#F1F1F1;" d="M245.039,294.331c0.413,0.932-0.211,2.682-1.063,2.981c-0.873,0.306-3.123-0.614-3.373-1.379
    c-0.312-0.957,0.509-2.513,1.562-2.959C243.064,292.592,244.588,293.312,245.039,294.331z"/>
  <path style="fill:#F1F1F1;" d="M303.235,247.449c0.591,1.277,0.245,2.197-1.059,2.814c-0.84,0.398-2.454-0.209-2.838-1.068
    c-0.384-0.857,0.239-2.472,1.092-2.829C301.763,245.806,302.63,246.141,303.235,247.449z"/>
  <path style="fill:#F1F1F1;" d="M271.842,167.307c-0.627-1.355-0.429-1.82,1.015-2.318c0.897-0.31,1.773-0.116,2.565,0.296
    c0.504,0.262,0.743,0.839,0.67,1.41c-0.247,1.925-1.361,2.504-3.224,1.84C272.211,168.3,272.098,167.784,271.842,167.307z"/>
  <path style="fill:#717399;" d="M140.663,251.64c0.304,0.666-0.404,2.305-1.141,2.644c-0.813,0.373-1.869-0.014-2.25-0.825
    c-0.349-0.742,0.165-2.442,0.834-2.755C138.664,250.442,140.407,251.08,140.663,251.64z"/>
  <path style="fill:#717399;" d="M550.051,219.795c-0.477-1.071-0.137-2.087,0.759-2.493c0.963-0.436,1.917,0.041,2.412,1.205
    c0.305,0.719-0.045,1.965-0.762,2.227c-0.456,0.166-1.029,0.026-1.549-0.001C550.27,220.698,550.266,220.084,550.051,219.795z"/>
  <path style="fill:#717399;" d="M184.275,208.344c-0.558,0.261-2.302-0.373-2.56-0.932c-0.307-0.665,0.396-2.3,1.137-2.645
    c0.759-0.354,1.877,0.054,2.252,0.82C185.43,206.254,184.887,208.057,184.275,208.344z"/>
  <path style="fill:#F1F1F1;" d="M229.611,234.191c0.667,1.398,0.614,1.638-0.487,2.185c-1.229,0.611-2.14,0.298-2.695-0.926
    c-0.506-1.116-0.37-1.411,0.936-2.023C228.754,232.779,228.972,232.853,229.611,234.191z"/>
  <path style="fill:#6C344D;" d="M554.635,262.81c0.465,0.958,0.07,2.263-0.778,2.567c-0.86,0.308-1.887-0.166-2.293-1.083
    c-0.4-0.903,0.348-1.954,0.764-2.154c0.414-0.199,1.001-0.229,1.521-0.2C554.394,261.969,554.442,262.457,554.635,262.81z"/>
  <path style="fill:#F1F1F1;" d="M129.565,207.92c0.61,1.238,0.323,2.257-0.665,2.701c-0.799,0.359-1.851-0.032-2.225-0.826
    c-0.26-0.551-0.679-1.776,0.605-2.622c0.477-0.133,1.03-0.016,1.547,0.023C129.334,207.234,129.471,207.655,129.565,207.92z"/>
  <path style="fill:#F1F1F1;" d="M506,238.752c-1.157,0.525-1.612,0.406-2.005-0.526c-0.352-0.835,0.013-2.435,0.676-2.591
    c0.49-0.115,1.043,0.027,1.566,0.068c0.548,0.043,0.59,0.542,0.764,0.901C507.617,237.87,507.521,238.061,506,238.752z"/>
  <path style="fill:#F1F1F1;" d="M319.827,165.074c0.415,0.818,0.106,1.857-0.679,2.283c-0.887,0.482-1.982,0.117-2.398-0.8
    c-0.363-0.8,0.024-1.856,0.819-2.233C318.38,163.94,319.429,164.288,319.827,165.074z"/>
  <path style="fill:#717399;" d="M181.278,102.258c0.523-0.245,2.31,0.402,2.555,0.925c0.154,0.329,0.313,1.905-0.925,2.555
    c-0.436,0.229-2.335-0.02-2.645-1.117C180.142,104.193,180.084,102.969,181.278,102.258z"/>
  <path style="fill:#717399;" d="M173.858,177.042c-1.178,0.523-1.51,0.384-2.05-0.859c-0.458-1.054-0.316-1.363,0.867-1.887
    c0.891-0.395,2.038-0.08,2.319,0.636C175.391,175.946,175.097,176.492,173.858,177.042z"/>
  <path style="fill:#717399;" d="M99.005,249.68c-1.015,0.484-1.46,0.389-1.879-0.403c-0.399-0.755,0.145-2.573,0.849-2.833
    c0.676-0.25,1.702,0.211,2.021,0.907C100.404,248.241,99.991,249.21,99.005,249.68z"/>
  <path style="fill:#717399;" d="M476.734,315.938c-0.56-1.149-0.467-1.473,0.566-1.99c1.204-0.602,1.577-0.485,2.114,0.664
    c0.421,0.901,0.181,2.009-0.511,2.357C478.207,317.32,477.166,316.825,476.734,315.938z"/>
  <path style="fill:#717399;" d="M513.109,203.316c0.075,0.435,0.764,0.882,0.284,1.277c-0.368,0.303-0.388,0.857-0.968,1.008
    c-0.845,0.22-1.501,0.076-1.834-0.616c-0.518-1.075-0.316-2.186,0.462-2.542C511.898,202.055,512.664,202.376,513.109,203.316z"/>
  <path style="fill:#717399;" d="M581.905,155.915c0.24,0.647-0.258,2.189-0.778,2.406c-0.877,0.366-1.965-0.123-2.345-0.981
    c-0.162-0.366-0.116-0.65,0.014-0.982c0.227-0.579,0.851-0.771,1.257-1.126C580.559,154.787,581.698,155.36,581.905,155.915z"/>
  <path style="fill:#717399;" d="M143.328,223.096c0.386,0.811,0.057,1.534-0.92,2.021c-0.848,0.422-1.303,0.236-1.773-0.725
    c-0.435-0.889-0.224-2.182,0.392-2.4C141.876,221.691,142.891,222.178,143.328,223.096z"/>
  <path style="fill:#717399;" d="M115.458,216.529c-0.711,0.549-1.488,0.38-2.17-0.472c-0.592-0.74-0.506-1.224,0.333-1.886
    c0.777-0.613,1.825-0.749,2.169-0.194C116.265,214.743,116.264,215.907,115.458,216.529z"/>
  <path style="fill:#F1F1F1;" d="M329.635,264.278c1.161-0.57,1.49-0.482,2.004,0.542c0.561,1.115,0.448,1.615-0.459,2.035
    c-0.823,0.38-1.865,0.014-2.261-0.795C328.494,265.189,328.668,264.753,329.635,264.278z"/>
  <path style="fill:#6C344D;" d="M418.114,143.413c-0.343-0.797,0.028-2.14,0.59-2.355c0.659-0.253,1.715,0.215,2.033,0.902
    c0.333,0.719-0.04,1.772-0.582,2.182C419.67,144.509,418.377,144.255,418.114,143.413z"/>
  <path style="fill:#6C344D;" d="M559.291,125.738c-0.315-0.742,0.054-1.971,0.669-2.231c0.481-0.203,1.846,0.517,2.107,1.111
    c0.237,0.539-0.201,1.708-0.731,1.952C560.407,126.999,559.704,126.712,559.291,125.738z"/>
  <path style="fill:#717399;" d="M330.691,228.628c0.259,0.471-0.239,1.771-0.786,2.052c-0.686,0.352-1.801,0.122-2.204-0.454
    c-0.369-0.528,0.01-1.734,0.668-2.127C329.089,227.669,330.317,227.949,330.691,228.628z"/>
  <path style="fill:#717399;" d="M563.703,208.672c0.151,0.322,0.246,0.969,0.132,1.304c-0.508,1.49-2.096,0.517-2.166,0.393
    c-0.602-1.062-0.581-1.89,0.698-2.243C563.238,207.695,563.547,208.31,563.703,208.672z"/>
  <path style="fill:#717399;" d="M458.042,154.012c-0.63,0.285-1.852-0.082-2.132-0.641c-0.245-0.489,0.282-1.777,0.84-2.054
    c0.69-0.342,2.002-0.046,2.19,0.494C459.218,152.607,458.782,153.677,458.042,154.012z"/>
  <path style="fill:#6C344D;" d="M414.543,334.835c0.464,1.028,0.356,1.454-0.472,1.863c-0.809,0.401-2.052,0.018-2.286-0.704
    c-0.196-0.605,0.287-1.709,0.839-1.918C413.49,333.748,414.175,334.019,414.543,334.835z"/>
  <path style="fill:#717399;" d="M350.803,261.44c-0.842,0.394-2.436-0.466-2.525-1.362c-0.07-0.695,1-1.53,1.74-1.321
    c0.671,0.189,1.203,0.599,1.514,1.236C351.809,260.56,351.52,261.104,350.803,261.44z"/>
  <path style="fill:#717399;" d="M420.592,261.325c-1.199-0.013-2.571-1.903-2.174-2.995c0.307-0.846,2.25-1.383,2.995-0.727
    c0.674,0.594,0.831,1.533,0.836,2.447C422.254,260.863,421.613,261.335,420.592,261.325z"/>
  <path style="fill:#717399;" d="M341.903,314.171c-1.169,0.507-1.601,0.374-2.001-0.489c-0.334-0.721-0.023-1.834,0.604-2.163
    c0.605-0.317,1.974,0.304,2.149,1.037c0.087,0.367,0.087,0.832-0.07,1.157C342.459,313.973,342.036,314.089,341.903,314.171z"/>
  <path style="fill:#717399;" d="M57.191,285.938c0.23,0.459-0.12,1.719-0.545,1.96c-0.562,0.319-2.269-0.041-2.471-0.52
    c-0.114-0.271,0.59-1.891,0.885-2.037C55.402,285.172,57.037,285.631,57.191,285.938z"/>
  <path style="fill:#717399;" d="M62.794,263.805c1-0.427,1.426-0.283,1.823,0.62c0.397,0.901,0.153,1.336-1.026,1.836
    c-0.74,0.313-1.322,0.176-1.59-0.375C61.525,264.908,61.78,264.238,62.794,263.805z"/>
  <path style="fill:#717399;" d="M465.763,273.148c-0.347,0.194-1.53-0.221-1.819-0.639c-0.366-0.53,0.046-1.836,0.671-2.123
    c0.406-0.187,1.64,0.143,1.869,0.5C466.696,271.216,466.15,272.931,465.763,273.148z"/>
  <path style="fill:#717399;" d="M107.07,172.143c-0.457-0.602,0.231-1.749,0.579-1.932c1.052-0.55,1.704,0.511,1.879,0.861
    c0.279,0.557-0.165,1.669-0.584,1.829C108.264,173.162,107.441,172.931,107.07,172.143z"/>
  <path style="fill:#717399;" d="M490.574,158.11c-0.602,0.293-1.341-0.125-1.825-1.034c-0.256-0.48,0.053-1.397,0.565-1.676
    c0.439-0.239,1.56,0.377,1.992,1.095C491.678,157.114,491.411,157.702,490.574,158.11z"/>
  <path style="fill:#717399;" d="M92.565,242.556c0.51,1.135,0.384,1.528-0.622,1.945c-0.769,0.319-1.238,0.123-1.612-0.674
    c-0.368-0.784-0.22-1.231,0.549-1.656c0.061-0.034,0.127-0.058,0.189-0.09C92.115,241.553,92.115,241.553,92.565,242.556z"/>
  <path style="fill:#717399;" d="M374.9,252.496c0.388,0.813,0.232,1.295-0.545,1.689c-0.926,0.469-1.399,0.294-1.805-0.668
    c-0.333-0.79-0.132-1.27,0.687-1.638C374.039,251.519,374.518,251.696,374.9,252.496z"/>
  <path style="fill:#717399;" d="M467.277,90.144c-0.212-0.651,0.189-1.698,0.732-1.911c0.56-0.219,1.99,0.303,1.895,0.732
    c-0.091,0.413,0.134,0.869-0.083,1.164C468.627,91.755,467.384,90.471,467.277,90.144z"/>
  <path style="fill:#717399;" d="M380.293,183.458c0.402,0.81,0.256,1.31-0.498,1.706c-0.802,0.421-1.336,0.289-1.732-0.427
    c-0.496-0.898-0.337-1.433,0.549-1.848C379.421,182.511,379.903,182.674,380.293,183.458z"/>
  <path style="fill:#717399;" d="M277.333,160.533c0.391-0.172,1.448,0.342,1.604,0.781c0.181,0.51-0.222,1.435-0.71,1.629
    c-0.844,0.336-1.277,0.169-1.655-0.639C276.163,161.43,276.365,160.96,277.333,160.533z"/>
  <path style="fill:#717399;" d="M432.421,135.068c-0.391,0.172-1.448-0.343-1.604-0.781c-0.181-0.51,0.222-1.435,0.71-1.629
    c0.844-0.336,1.276-0.169,1.655,0.639C433.591,134.17,433.389,134.641,432.421,135.068z"/>
  <path style="fill:#717399;" d="M522.532,329.175c0.33,0.785,0.13,1.263-0.684,1.632c-0.719,0.326-1.295,0.176-1.572-0.408
    c-0.309-0.652,0.189-1.876,0.846-2.081C521.734,328.128,522.214,328.42,522.532,329.175z"/>
  <path style="fill:#717399;" d="M293.173,168.799c0.689-0.217,1.71,0.199,1.885,0.769c0.15,0.485-0.263,1.662-0.639,1.823
    c-0.606,0.26-1.515-0.178-1.725-0.83C292.523,170.026,292.827,168.908,293.173,168.799z"/>
  <path style="fill:#717399;" d="M167.578,192.118c0.396-0.19,1.503,0.266,1.635,0.675c0.134,0.412-0.399,1.564-0.818,1.771
    c-0.584,0.289-1.136,0.047-1.485-0.649C166.451,193,166.606,192.584,167.578,192.118z"/>
  <path style="fill:#717399;" d="M164.986,163.624c0.332,0.709,0.202,1.293-0.352,1.586c-0.511,0.27-1.901-0.134-2.008-0.584
    c-0.1-0.42,0.496-1.554,0.911-1.731C164.114,162.648,164.657,162.921,164.986,163.624z"/>
  <path style="fill:#717399;" d="M156.566,174.843c0.306,0.577,0.08,1.141-0.599,1.496c-0.796,0.416-1.451,0.259-1.722-0.414
    c-0.18-0.444,0.186-1.696,0.544-1.863C155.145,173.895,156.343,174.421,156.566,174.843z"/>
  <path style="fill:#717399;" d="M372.065,238.037c1.178,1.015-0.529,2.406-0.859,2.545c-0.395,0.165-0.805-0.041-0.961-0.231
    c-0.346-0.421-0.806-1.436-0.471-1.939C370.432,237.422,371.992,237.974,372.065,238.037z"/>
  <path style="fill:#717399;" d="M415.759,257.857c1.52,1.309-0.342,2.975-0.769,3.154c-0.509,0.213-1.039-0.053-1.24-0.298
    c-0.447-0.543-1.039-1.852-0.607-2.502C413.992,256.934,415.664,257.775,415.759,257.857z"/>
  <path style="fill:#717399;" d="M427.699,273.745c-0.816,0.281-1.412-0.072-1.679-0.995c-0.168-0.58,0.08-1.118,0.617-1.337
    c0.465-0.189,1.7,0.308,1.924,0.774C428.765,272.613,428.242,273.558,427.699,273.745z"/>
  <path style="fill:#717399;" d="M317.537,178.483c0.771-0.39,1.255-0.312,1.619,0.261c0.306,0.481-0.026,1.854-0.494,2.041
    c-0.368,0.147-1.559-0.406-1.763-0.82C316.61,179.381,316.846,178.832,317.537,178.483z"/>
  <path style="fill:#F1F1F1;" d="M510.58,167.102c1.401,0.515,1.59,0.984,0.921,2.357c-0.415,0.853-1.172,1.336-2.023,1.605
    c-0.541,0.171-1.119-0.067-1.471-0.523c-1.187-1.536-0.808-2.733,0.979-3.581C509.616,166.66,510.061,166.945,510.58,167.102z"/>
  <path style="fill:#F1F1F1;" d="M478.229,202.611c-0.872-0.286-1.388-1.238-1.134-2.095c0.286-0.968,1.319-1.484,2.261-1.13
    c0.822,0.309,1.295,1.329,0.999,2.158C480.054,202.389,479.065,202.885,478.229,202.611z"/>
  <path style="fill:#717399;" d="M511.487,175.774c-0.154,0.398-1.266,0.782-1.686,0.582c-0.489-0.232-0.858-1.172-0.65-1.654
    c0.359-0.835,0.783-1.022,1.622-0.719C511.68,174.312,511.87,174.787,511.487,175.774z"/>
  <path style="fill:#717399;" d="M494.441,181.13c-0.334,0.641-1.349,1.068-1.877,0.79c-0.449-0.237-0.989-1.361-0.837-1.741
    c0.245-0.612,1.197-0.946,1.807-0.632C494.034,179.803,494.609,180.808,494.441,181.13z"/>
  <path style="fill:#717399;" d="M470.366,191.51c-0.269,0.821-0.666,1.108-1.329,0.96c-0.557-0.124-1.292-1.329-1.094-1.792
    c0.156-0.365,1.39-0.815,1.827-0.667C470.387,190.22,470.608,190.775,470.366,191.51z"/>
  <path style="fill:#717399;" d="M248.937,187.864c0.226,0.634-0.168,1.236-0.991,1.513c-0.59,0.199-1.133-0.004-1.369-0.512
    c-0.19-0.41,0.121-1.682,0.463-1.893C247.454,186.718,248.745,187.325,248.937,187.864z"/>
  <path style="fill:#717399;" d="M489.335,232.411c-0.378,0.171-1.497-0.341-1.606-0.734c-0.088-0.316,0.414-1.554,0.673-1.658
    c0.368-0.147,1.559,0.406,1.763,0.82C490.482,231.481,490.196,232.022,489.335,232.411z"/>
  <path style="fill:#717399;" d="M494.221,164.736c-0.174-0.385,0.315-1.471,0.736-1.604c0.762-0.24,1.041,0.524,1.548,0.802
    c0.297,0.163-0.264,1.411-0.713,1.633C495.151,165.884,494.61,165.598,494.221,164.736z"/>
  <path style="fill:#6C344D;" d="M302.542,359.685c0.81-0.425,1.443-0.269,1.732,0.427c0.215,0.517,0.003,1.058-0.538,1.371
    c-0.78,0.452-1.454,0.344-1.783-0.286C301.641,360.601,301.858,360.044,302.542,359.685z"/>
  <path style="fill:#717399;" d="M84.751,196.662c0.164,0.375-0.367,1.472-0.771,1.593c-0.305,0.092-1.336-0.433-1.565-0.797
    c-0.202-0.321,0.325-1.45,0.777-1.663C83.835,195.492,84.371,195.789,84.751,196.662z"/>
  <path style="fill:#717399;" d="M411.143,217.632c-0.605,0.283-1.136,0.048-1.487-0.659c-0.405-0.815-0.219-1.452,0.497-1.706
    c0.612-0.217,1.11,0.06,1.436,0.801C411.907,216.79,411.748,217.349,411.143,217.632z"/>
  <path style="fill:#717399;" d="M107.896,243.161c-0.722,0.324-1.283,0.173-1.573-0.423c-0.322-0.662-0.013-1.252,0.829-1.586
    c0.703-0.279,1.286-0.063,1.522,0.564C108.9,242.321,108.624,242.834,107.896,243.161z"/>
  <path style="fill:#717399;" d="M155.641,259.465c0.155,0.638-0.322,1.257-1.136,1.475c-0.618,0.165-1.324-0.271-1.41-0.872
    c-0.083-0.577,0.543-1.274,1.278-1.424C154.876,258.543,155.519,258.959,155.641,259.465z"/>
  <path style="fill:#717399;" d="M332.09,309.331c-0.759,0.282-1.279,0.108-1.539-0.516c-0.274-0.659,0.071-1.239,0.923-1.552
    c0.576-0.212,1.285,0.024,1.397,0.465C333.054,308.451,332.744,309.088,332.09,309.331z"/>
  <path style="fill:#717399;" d="M338.299,107.258c0.073,1.272-0.202,1.632-1.15,1.709c-0.792,0.065-1.729-0.611-1.822-1.313
    c-0.089-0.677,0.967-1.748,1.715-1.659c0.375,0.045,0.811,0.205,1.062,0.465C338.305,106.668,338.268,107.105,338.299,107.258z"/>
  <path style="fill:#717399;" d="M330.369,114.797c0.003,0.81-0.341,1.238-1.016,1.266c-0.713,0.03-1.138-0.494-1.138-1.402
    c0-0.614,0.466-1.198,0.919-1.151C329.876,113.588,330.367,114.1,330.369,114.797z"/>
  <path style="fill:#717399;" d="M231.752,107.857c0.731-0.311,1.301-0.176,1.59,0.376c0.349,0.668,0.063,1.253-0.782,1.603
    c-0.597,0.247-1.287,0.093-1.448-0.325C230.891,108.937,231.221,108.082,231.752,107.857z"/>
  <path style="fill:#717399;" d="M178.34,132.863c-0.76,0.302-1.284,0.153-1.564-0.447c-0.309-0.661,0.007-1.247,0.853-1.577
    c0.599-0.234,1.286-0.043,1.422,0.395C179.227,131.801,178.852,132.659,178.34,132.863z"/>
  <path style="fill:#717399;" d="M292.117,298.217c0.403,0.882,0.403,0.882-0.549,1.327c-0.984,0.46-0.984,0.46-1.468-0.6
    c-0.413-0.902-0.413-0.902,0.74-1.417C291.639,297.172,291.639,297.172,292.117,298.217z"/>
  <path style="fill:#717399;" d="M378.383,280.761c0.129,0.23-0.271,1.529-0.526,1.704c-0.31,0.214-1.825-0.301-1.774-0.654
    c0.07-0.48-0.3-1.057,0.235-1.454C376.747,280.04,378.131,280.312,378.383,280.761z"/>
  <path style="fill:#6C344D;" d="M309.604,220.653c-0.653-0.173-1.047,0.292-1.552,0.471c-0.546,0.193-0.589,1.361-0.579,1.354
    c-0.173,0.806,0.133,1.424,0.928,1.77c-0.001-0.002-0.002-0.003-0.002-0.005c0.162,0.124,0.387,0.206,0.576,0.207
    c-0.002,0.001-0.004,0.002-0.006,0.003c1.382,0.124,2.102-0.352,2.322-1.535C311.462,221.999,310.608,220.919,309.604,220.653z"/>
  <path style="fill:#717399;" d="M359.786,133.633c0.08,0.531-0.836,1.58-1.446,1.654c-0.765,0.094-1.733-0.507-1.912-1.187
    c-0.164-0.623,0.608-1.624,1.361-1.765C358.614,132.18,359.67,132.866,359.786,133.633z"/>
  <path style="fill:#6C344D;" d="M342.748,118.868c-0.553-0.388-1.084-0.087-1.62-0.094c-0.579-0.008-1.023,1.074-1.01,1.071
    c-0.441,0.696-0.367,1.382,0.26,1.982c0-0.002,0-0.004,0-0.006c0.109,0.173,0.292,0.327,0.469,0.393
    c-0.002,0-0.004,0.001-0.007,0.001c1.254,0.594,2.095,0.395,2.709-0.639C344.027,120.773,343.598,119.465,342.748,118.868z"/>
  <path style="fill:#6C344D;" d="M118.782,144.577c0.943,0.271,1.199,1.236,1.141,1.952c-0.061,0.753-0.614,1.561-1.399,1.579
    c-2.18,0.05-2.028-2.139-2.037-2.135C116.613,144.471,118.666,144.422,118.782,144.577z"/>
  <path style="fill:#717399;" d="M228.565,254.92c-0.666,0.304-2.305-0.404-2.644-1.141c-0.373-0.813,0.014-1.869,0.825-2.25
    c0.742-0.349,2.442,0.165,2.755,0.834C229.763,252.921,229.125,254.664,228.565,254.92z"/>
  <path style="fill:#717399;" d="M43.43,141.561c-0.261-0.558,0.373-2.302,0.932-2.56c0.665-0.306,2.3,0.396,2.645,1.137
    c0.354,0.759-0.054,1.877-0.82,2.252C45.52,142.715,43.717,142.173,43.43,141.561z"/>
  <path style="fill:#717399;" d="M180.52,318.335c0.74,0.847,0.769,1.301,0.12,1.917c-0.619,0.589-2.516,0.555-2.957-0.052
    c-0.423-0.583-0.257-1.696,0.327-2.191C178.756,317.378,179.801,317.513,180.52,318.335z"/>
  <path style="fill:#717399;" d="M257.109,257.585c-0.811,0.386-1.534,0.057-2.021-0.92c-0.422-0.848-0.236-1.303,0.725-1.773
    c0.889-0.435,2.182-0.224,2.4,0.392C258.514,256.132,258.027,257.147,257.109,257.585z"/>
  <path style="fill:#717399;" d="M103.686,331.517c-0.456,0.603-1.747,0.251-2.017-0.036c-0.814-0.864,0.032-1.779,0.321-2.042
    c0.461-0.419,1.651-0.292,1.919,0.068C104.345,330.092,104.345,330.947,103.686,331.517z"/>
  <path style="fill:#717399;" d="M175.399,326.461c0.955-0.797,1.368-0.782,2.041,0.073c0.515,0.654,0.453,1.159-0.214,1.734
    c-0.656,0.566-1.125,0.545-1.743-0.081c-0.049-0.049-0.09-0.106-0.137-0.158C174.555,327.165,174.555,327.165,175.399,326.461z"/>
  <path style="fill:#717399;" d="M59.657,124.864c0.19,0.396-0.266,1.503-0.675,1.635c-0.412,0.134-1.564-0.399-1.771-0.818
    c-0.289-0.584-0.047-1.136,0.649-1.485C58.774,123.737,59.19,123.892,59.657,124.864z"/>
  <path style="fill:#717399;" d="M88.151,122.271c-0.709,0.332-1.293,0.202-1.586-0.352c-0.27-0.511,0.134-1.901,0.584-2.008
    c0.42-0.1,1.554,0.496,1.731,0.911C89.127,121.4,88.854,121.943,88.151,122.271z"/>
  <path style="fill:#717399;" d="M76.932,113.852c-0.577,0.306-1.141,0.08-1.496-0.599c-0.416-0.796-0.259-1.451,0.414-1.722
    c0.444-0.18,1.696,0.186,1.863,0.544C77.879,112.431,77.353,113.629,76.932,113.852z"/>
  <path style="fill:#717399;" d="M133.324,346.383c0.317-0.259,1.517-0.044,1.742,0.311c0.171,0.269-0.056,1.403-0.345,1.722
    c-0.254,0.281-1.484,0.078-1.811-0.299C132.444,347.58,132.586,346.985,133.324,346.383z"/>
  <path style="fill:#717399;" d="M220.739,269.898c-0.639,0.155-1.257-0.322-1.475-1.136c-0.165-0.618,0.271-1.324,0.872-1.41
    c0.577-0.083,1.274,0.543,1.424,1.278C221.662,269.132,221.246,269.775,220.739,269.898z"/>
  <path style="fill:#6C344D;" d="M73.982,327.687c0.006-0.981,0.866-1.488,1.571-1.625c0.741-0.144,1.669,0.17,1.898,0.92
    c0.637,2.085-1.511,2.531-1.506,2.538C74.466,329.804,73.863,327.841,73.982,327.687z"/>
  
    <rect x="11.565" y="-15.754" transform="matrix(0.9057 -0.424 0.424 0.9057 -51.0469 190.7373)" style="display:none;opacity:0.31;fill:#4945AF;" width="783.06" height="451.667"/>
</g>
</svg>